<svg width="37" height="35" viewBox="0 0 37 35" fill="none" xmlns="http://www.w3.org/2000/svg">
<path d="M35.4614 33.8333H33.0777C33.1028 33.6416 33.1141 33.4459 33.1141 33.25C33.1141 31.6035 32.1608 30.202 30.7667 29.553V9.91664C30.7667 9.56664 30.532 9.33333 30.1799 9.33333H21.3772V0.583312C21.3772 0.233311 21.1424 1.50178e-08 20.7903 1.50178e-08H4.94545C4.5932 -6.83445e-05 4.35849 0.233243 4.35849 0.583243V33.8333H1.42423C1.07212 33.8333 0.837402 34.0666 0.837402 34.4166C0.837402 34.7666 1.07212 35 1.42423 35H4.94531H6.70585H20.7902H32.3511H35.4614C35.8135 35 36.0482 34.7667 36.0482 34.4167C36.0482 34.0667 35.8135 33.8333 35.4614 33.8333ZM29.5929 29.2078C29.4014 29.1812 29.2057 29.1666 29.0061 29.1666C28.5631 29.1666 28.1285 29.2416 27.7179 29.3818C27.6157 29.2463 27.4508 29.1666 27.2455 29.1666C26.8934 29.1666 26.6587 29.3999 26.6587 29.7499V29.9287C26.4363 30.088 26.2295 30.2697 26.0418 30.4717C26.0122 30.5028 25.983 30.5344 25.9545 30.5665C25.4682 29.9623 24.8418 29.5252 24.1336 29.3124C24.0319 29.2197 23.8917 29.1665 23.7245 29.1665C23.659 29.1665 23.5977 29.1747 23.5411 29.1901C23.4086 29.1747 23.274 29.1665 23.1376 29.1665C22.7698 29.1665 22.3557 29.214 22.0202 29.3494C21.9786 29.3633 21.9374 29.3777 21.8965 29.3931C21.491 29.0654 21.0167 28.8295 20.5168 28.6996C20.5115 28.6982 20.5061 28.6972 20.5009 28.6957C20.4573 28.6846 20.4135 28.674 20.3696 28.6645C20.334 28.6567 20.2979 28.6499 20.262 28.6432C20.2463 28.6404 20.2307 28.6373 20.2151 28.6346C20.1773 28.6281 20.1394 28.6224 20.1012 28.6171C20.0842 28.6147 20.0671 28.6126 20.05 28.6105C20.015 28.6062 19.9799 28.6022 19.9445 28.599C19.9187 28.5966 19.8929 28.5948 19.867 28.5929C19.8394 28.591 19.8118 28.5888 19.7839 28.5875C19.7282 28.5848 19.6724 28.5832 19.6165 28.5832C19.5734 28.5832 19.5305 28.584 19.4879 28.5856C19.46 28.5866 19.4321 28.5883 19.4042 28.5899C19.3931 28.5905 19.3818 28.591 19.3707 28.5918C18.8361 28.627 18.3108 28.777 17.8559 29.0427V10.5H20.7902H29.5929V29.2078ZM5.5322 1.16662H20.2034V9.33333H17.2691C16.917 9.33333 16.6823 9.56664 16.6823 9.91664V28.0584C16.3824 27.7603 16.0367 27.5081 15.6603 27.3107C15.6271 27.2931 15.5935 27.276 15.5598 27.2593C15.5465 27.2528 15.5334 27.246 15.5201 27.2397C15.1012 27.0378 14.6455 26.9053 14.1692 26.8557C14.1626 26.855 14.1558 26.8545 14.1491 26.8538C14.0938 26.8483 14.0382 26.844 13.9824 26.8408C13.9676 26.8399 13.9528 26.839 13.938 26.8383C13.8749 26.8353 13.8116 26.8334 13.748 26.8334C12.8746 26.8334 12.0655 27.1189 11.4007 27.5988V27.4167C11.4007 27.0667 11.1659 26.8334 10.8138 26.8334C10.4617 26.8334 10.227 27.0667 10.227 27.4167V28.5834C10.227 28.6709 10.2417 28.7511 10.2692 28.8222C9.98101 29.2942 9.78247 29.8263 9.69884 30.3918C9.02324 30.4686 8.40546 30.7102 7.87964 31.0715V30.9168C7.87964 30.5668 7.64492 30.3335 7.29282 30.3335C6.94071 30.3335 6.70599 30.5668 6.70599 30.9168V32.0835C6.70599 32.1516 6.71514 32.2151 6.73206 32.2735C6.44108 32.7413 6.24309 33.2706 6.16153 33.8334H5.53234V1.16662H5.5322ZM9.9599 31.5121C9.97152 31.5111 9.98328 31.5104 9.99497 31.5095C10.0259 31.5071 10.0569 31.5048 10.0881 31.5033C10.1341 31.5013 10.1804 31.4999 10.227 31.4999C10.5791 31.4999 10.8138 31.2666 10.8138 30.9166C10.8138 29.2833 12.1049 27.9999 13.7481 27.9999C15.2152 27.9999 16.4476 29.0499 16.6236 30.5082C16.6633 30.666 16.7575 30.796 16.8864 30.8824C16.8945 30.8881 16.9028 30.8934 16.9113 30.8987C16.9204 30.9042 16.9294 30.9098 16.9388 30.9149C16.9605 30.9268 16.983 30.9377 17.0065 30.947C17.0074 30.9474 17.0083 30.9477 17.0092 30.9481C17.036 30.9588 17.0641 30.9677 17.0931 30.9749C17.0931 30.9749 17.0931 30.9749 17.0932 30.975C17.1281 30.9865 17.1678 30.991 17.2098 30.9897C17.4027 30.9925 17.5821 30.8876 17.6799 30.7418C17.6799 30.7418 17.68 30.7417 17.6801 30.7417L17.7387 30.6834C18.2082 30.1001 18.8537 29.7501 19.6167 29.7501C20.0129 29.7501 20.409 29.8604 20.7645 30.0667C20.0644 30.721 19.6675 31.5739 19.6214 32.4865C19.6183 32.5462 19.6167 32.6063 19.6167 32.6668C19.6167 33.0724 19.6846 33.4612 19.8189 33.8334H7.35141C7.62608 32.5775 8.67209 31.6284 9.9599 31.5121ZM21.2043 33.8333C20.9801 33.4564 20.8489 33.0107 20.8489 32.6083C20.8489 31.9633 21.1048 31.3821 21.5445 30.9574C21.6285 30.8799 21.7181 30.8084 21.8128 30.7437C21.9044 30.7443 21.9966 30.7253 22.0813 30.6833C23.3723 29.9833 24.8982 30.625 25.3677 31.9083C25.4263 32.0833 25.6024 32.2583 25.8958 32.2583C25.9515 32.2583 26.0132 32.2407 26.0751 32.2094C26.2223 32.1854 26.3387 32.0779 26.424 31.9083C26.6514 31.4279 27.0035 31.0444 27.4321 30.7756C27.5246 30.75 27.604 30.7046 27.6672 30.643C28.0703 30.4416 28.5272 30.3333 29.0061 30.3333C30.6493 30.3333 31.9404 31.6166 31.9404 33.25C31.9404 33.425 31.9404 33.6583 31.8817 33.8333H21.2043Z" fill="#FF851B"/>
<path d="M20.2034 15.1667C19.8513 15.1667 19.6166 15.4 19.6166 15.75V16.9167C19.6166 17.2667 19.8513 17.5 20.2034 17.5C20.5555 17.5 20.7902 17.2667 20.7902 16.9167V15.75C20.7902 15.4 20.5555 15.1667 20.2034 15.1667Z" fill="#FF851B"/>
<path d="M20.2034 25.6667C19.8513 25.6667 19.6166 25.9 19.6166 26.25V27.4167C19.6166 27.7667 19.8513 28 20.2034 28C20.5555 28 20.7902 27.7667 20.7902 27.4167V26.25C20.7902 25.9 20.5555 25.6667 20.2034 25.6667Z" fill="#FF851B"/>
<path d="M20.2034 18.6667C19.8513 18.6667 19.6166 18.9 19.6166 19.25V20.4167C19.6166 20.7667 19.8513 21 20.2034 21C20.5555 21 20.7902 20.7667 20.7902 20.4167V19.25C20.7902 18.9 20.5555 18.6667 20.2034 18.6667Z" fill="#FF851B"/>
<path d="M20.2034 22.1667C19.8513 22.1667 19.6166 22.4 19.6166 22.75V23.9167C19.6166 24.2667 19.8513 24.5 20.2034 24.5C20.5555 24.5 20.7902 24.2667 20.7902 23.9167V22.75C20.7902 22.4 20.5555 22.1667 20.2034 22.1667Z" fill="#FF851B"/>
<path d="M20.2034 11.6666C19.8513 11.6666 19.6166 11.8999 19.6166 12.2499V13.4166C19.6166 13.7666 19.8513 13.9999 20.2034 13.9999C20.5555 13.9999 20.7902 13.7666 20.7902 13.4166V12.2499C20.7902 11.8999 20.5555 11.6666 20.2034 11.6666Z" fill="#FF851B"/>
<path d="M23.7244 17.5C24.0765 17.5 24.3112 17.2667 24.3112 16.9167V15.75C24.3112 15.4 24.0765 15.1667 23.7244 15.1667C23.3723 15.1667 23.1376 15.4 23.1376 15.75V16.9167C23.1376 17.2667 23.3723 17.5 23.7244 17.5Z" fill="#FF851B"/>
<path d="M23.7244 13.9999C24.0765 13.9999 24.3112 13.7666 24.3112 13.4166V12.2499C24.3112 11.8999 24.0765 11.6666 23.7244 11.6666C23.3723 11.6666 23.1376 11.8999 23.1376 12.2499V13.4166C23.1376 13.7666 23.3723 13.9999 23.7244 13.9999Z" fill="#FF851B"/>
<path d="M23.7244 21C24.0765 21 24.3112 20.7667 24.3112 20.4167V19.25C24.3112 18.9 24.0765 18.6667 23.7244 18.6667C23.3723 18.6667 23.1376 18.9 23.1376 19.25V20.4167C23.1376 20.7667 23.3723 21 23.7244 21Z" fill="#FF851B"/>
<path d="M23.7244 24.5C24.0765 24.5 24.3112 24.2667 24.3112 23.9167V22.75C24.3112 22.4 24.0765 22.1667 23.7244 22.1667C23.3723 22.1667 23.1376 22.4 23.1376 22.75V23.9167C23.1376 24.2667 23.3723 24.5 23.7244 24.5Z" fill="#FF851B"/>
<path d="M23.7244 28C24.0765 28 24.3112 27.7667 24.3112 27.4167V26.25C24.3112 25.9 24.0765 25.6667 23.7244 25.6667C23.3723 25.6667 23.1376 25.9 23.1376 26.25V27.4167C23.1376 27.7667 23.3723 28 23.7244 28Z" fill="#FF851B"/>
<path d="M27.2455 21C27.5976 21 27.8323 20.7667 27.8323 20.4167V19.25C27.8323 18.9 27.5976 18.6667 27.2455 18.6667C26.8934 18.6667 26.6587 18.9 26.6587 19.25V20.4167C26.6587 20.7667 26.8934 21 27.2455 21Z" fill="#FF851B"/>
<path d="M27.2455 17.5C27.5976 17.5 27.8323 17.2667 27.8323 16.9167V15.75C27.8323 15.4 27.5976 15.1667 27.2455 15.1667C26.8934 15.1667 26.6587 15.4 26.6587 15.75V16.9167C26.6587 17.2667 26.8934 17.5 27.2455 17.5Z" fill="#FF851B"/>
<path d="M27.2455 28C27.5976 28 27.8323 27.7667 27.8323 27.4167V26.25C27.8323 25.9 27.5976 25.6667 27.2455 25.6667C26.8934 25.6667 26.6587 25.9 26.6587 26.25V27.4167C26.6587 27.7667 26.8934 28 27.2455 28Z" fill="#FF851B"/>
<path d="M27.2455 24.5C27.5976 24.5 27.8323 24.2667 27.8323 23.9167V22.75C27.8323 22.4 27.5976 22.1667 27.2455 22.1667C26.8934 22.1667 26.6587 22.4 26.6587 22.75V23.9167C26.6587 24.2667 26.8934 24.5 27.2455 24.5Z" fill="#FF851B"/>
<path d="M27.2455 13.9999C27.5976 13.9999 27.8323 13.7666 27.8323 13.4166V12.2499C27.8323 11.8999 27.5976 11.6666 27.2455 11.6666C26.8934 11.6666 26.6587 11.8999 26.6587 12.2499V13.4166C26.6587 13.7666 26.8934 13.9999 27.2455 13.9999Z" fill="#FF851B"/>
<path d="M7.29276 22.1667C7.64487 22.1667 7.87958 21.9333 7.87958 21.5833V20.4167C7.87958 20.0667 7.64487 19.8333 7.29276 19.8333C6.94065 19.8333 6.70593 20.0667 6.70593 20.4167V21.5833C6.70586 21.9333 6.94065 22.1667 7.29276 22.1667Z" fill="#FF851B"/>
<path d="M7.29276 25.6667C7.64487 25.6667 7.87958 25.4334 7.87958 25.0834V23.9167C7.87958 23.5667 7.64487 23.3334 7.29276 23.3334C6.94065 23.3334 6.70593 23.5667 6.70593 23.9167V25.0834C6.70586 25.4333 6.94065 25.6667 7.29276 25.6667Z" fill="#FF851B"/>
<path d="M7.29276 29.1667C7.64487 29.1667 7.87958 28.9334 7.87958 28.5834V27.4167C7.87958 27.0667 7.64487 26.8334 7.29276 26.8334C6.94065 26.8334 6.70593 27.0667 6.70593 27.4167V28.5834C6.70586 28.9333 6.94065 29.1667 7.29276 29.1667Z" fill="#FF851B"/>
<path d="M7.29276 4.66663C7.64487 4.66663 7.87958 4.43332 7.87958 4.08332V2.91662C7.87958 2.56662 7.64487 2.33331 7.29276 2.33331C6.94065 2.33331 6.70593 2.56662 6.70593 2.91662V4.08332C6.70586 4.43325 6.94065 4.66663 7.29276 4.66663Z" fill="#FF851B"/>
<path d="M7.29276 8.16663C7.64487 8.16663 7.87958 7.93332 7.87958 7.58332V6.41662C7.87958 6.06662 7.64487 5.83331 7.29276 5.83331C6.94065 5.83331 6.70593 6.06662 6.70593 6.41662V7.58332C6.70586 7.93325 6.94065 8.16663 7.29276 8.16663Z" fill="#FF851B"/>
<path d="M7.29276 11.6666C7.64487 11.6666 7.87958 11.4333 7.87958 11.0833V9.91663C7.87958 9.56662 7.64487 9.33331 7.29276 9.33331C6.94065 9.33331 6.70593 9.56662 6.70593 9.91663V11.0833C6.70586 11.4332 6.94065 11.6666 7.29276 11.6666Z" fill="#FF851B"/>
<path d="M7.29276 15.1667C7.64487 15.1667 7.87958 14.9333 7.87958 14.5833V13.4167C7.87958 13.0667 7.64487 12.8333 7.29276 12.8333C6.94065 12.8333 6.70593 13.0667 6.70593 13.4167V14.5833C6.70586 14.9333 6.94065 15.1667 7.29276 15.1667Z" fill="#FF851B"/>
<path d="M7.29276 18.6667C7.64487 18.6667 7.87958 18.4333 7.87958 18.0833V16.9167C7.87958 16.5667 7.64487 16.3333 7.29276 16.3333C6.94065 16.3333 6.70593 16.5667 6.70593 16.9167V18.0833C6.70586 18.4333 6.94065 18.6667 7.29276 18.6667Z" fill="#FF851B"/>
<path d="M10.8138 8.16663C11.1659 8.16663 11.4006 7.93332 11.4006 7.58332V6.41662C11.4006 6.06662 11.1659 5.83331 10.8138 5.83331C10.4616 5.83331 10.2269 6.06662 10.2269 6.41662V7.58332C10.2269 7.93325 10.4616 8.16663 10.8138 8.16663Z" fill="#FF851B"/>
<path d="M10.8138 4.66663C11.1659 4.66663 11.4006 4.43332 11.4006 4.08332V2.91662C11.4006 2.56662 11.1659 2.33331 10.8138 2.33331C10.4616 2.33331 10.2269 2.56662 10.2269 2.91662V4.08332C10.2269 4.43325 10.4616 4.66663 10.8138 4.66663Z" fill="#FF851B"/>
<path d="M10.8138 15.1667C11.1659 15.1667 11.4006 14.9333 11.4006 14.5833V13.4167C11.4006 13.0667 11.1659 12.8333 10.8138 12.8333C10.4616 12.8333 10.2269 13.0667 10.2269 13.4167V14.5833C10.2269 14.9333 10.4616 15.1667 10.8138 15.1667Z" fill="#FF851B"/>
<path d="M10.8138 11.6666C11.1659 11.6666 11.4006 11.4333 11.4006 11.0833V9.91663C11.4006 9.56662 11.1659 9.33331 10.8138 9.33331C10.4616 9.33331 10.2269 9.56662 10.2269 9.91663V11.0833C10.2269 11.4332 10.4616 11.6666 10.8138 11.6666Z" fill="#FF851B"/>
<path d="M10.8138 18.6667C11.1659 18.6667 11.4006 18.4333 11.4006 18.0833V16.9167C11.4006 16.5667 11.1659 16.3333 10.8138 16.3333C10.4616 16.3333 10.2269 16.5667 10.2269 16.9167V18.0833C10.2269 18.4333 10.4616 18.6667 10.8138 18.6667Z" fill="#FF851B"/>
<path d="M10.8138 22.1667C11.1659 22.1667 11.4006 21.9333 11.4006 21.5833V20.4167C11.4006 20.0667 11.1659 19.8333 10.8138 19.8333C10.4616 19.8333 10.2269 20.0667 10.2269 20.4167V21.5833C10.2269 21.9333 10.4616 22.1667 10.8138 22.1667Z" fill="#FF851B"/>
<path d="M10.8138 25.6667C11.1659 25.6667 11.4006 25.4334 11.4006 25.0834V23.9167C11.4006 23.5667 11.1659 23.3334 10.8138 23.3334C10.4616 23.3334 10.2269 23.5667 10.2269 23.9167V25.0834C10.2269 25.4333 10.4616 25.6667 10.8138 25.6667Z" fill="#FF851B"/>
<path d="M14.3349 11.6666C14.687 11.6666 14.9217 11.4333 14.9217 11.0833V9.91663C14.9217 9.56662 14.687 9.33331 14.3349 9.33331C13.9828 9.33331 13.748 9.56662 13.748 9.91663V11.0833C13.748 11.4332 13.9828 11.6666 14.3349 11.6666Z" fill="#FF851B"/>
<path d="M14.3349 8.16663C14.687 8.16663 14.9217 7.93332 14.9217 7.58332V6.41662C14.9217 6.06662 14.687 5.83331 14.3349 5.83331C13.9828 5.83331 13.748 6.06662 13.748 6.41662V7.58332C13.748 7.93325 13.9828 8.16663 14.3349 8.16663Z" fill="#FF851B"/>
<path d="M14.3349 4.66663C14.687 4.66663 14.9217 4.43332 14.9217 4.08332V2.91662C14.9217 2.56662 14.687 2.33331 14.3349 2.33331C13.9828 2.33331 13.748 2.56662 13.748 2.91662V4.08332C13.748 4.43325 13.9828 4.66663 14.3349 4.66663Z" fill="#FF851B"/>
<path d="M14.3349 25.6667C14.687 25.6667 14.9217 25.4334 14.9217 25.0834V23.9167C14.9217 23.5667 14.687 23.3334 14.3349 23.3334C13.9828 23.3334 13.748 23.5667 13.748 23.9167V25.0834C13.748 25.4333 13.9828 25.6667 14.3349 25.6667Z" fill="#FF851B"/>
<path d="M14.3349 22.1667C14.687 22.1667 14.9217 21.9333 14.9217 21.5833V20.4167C14.9217 20.0667 14.687 19.8333 14.3349 19.8333C13.9828 19.8333 13.748 20.0667 13.748 20.4167V21.5833C13.748 21.9333 13.9828 22.1667 14.3349 22.1667Z" fill="#FF851B"/>
<path d="M14.3349 18.6667C14.687 18.6667 14.9217 18.4333 14.9217 18.0833V16.9167C14.9217 16.5667 14.687 16.3333 14.3349 16.3333C13.9828 16.3333 13.748 16.5667 13.748 16.9167V18.0833C13.748 18.4333 13.9828 18.6667 14.3349 18.6667Z" fill="#FF851B"/>
<path d="M14.3349 15.1667C14.687 15.1667 14.9217 14.9333 14.9217 14.5833V13.4167C14.9217 13.0667 14.687 12.8333 14.3349 12.8333C13.9828 12.8333 13.748 13.0667 13.748 13.4167V14.5833C13.748 14.9333 13.9828 15.1667 14.3349 15.1667Z" fill="#FF851B"/>
<path d="M17.856 8.16663C18.2081 8.16663 18.4428 7.93332 18.4428 7.58332V6.41662C18.4428 6.06662 18.2081 5.83331 17.856 5.83331C17.5039 5.83331 17.2692 6.06662 17.2692 6.41662V7.58332C17.2691 7.93325 17.5039 8.16663 17.856 8.16663Z" fill="#FF851B"/>
<path d="M17.856 4.66663C18.2081 4.66663 18.4428 4.43332 18.4428 4.08332V2.91662C18.4428 2.56662 18.2081 2.33331 17.856 2.33331C17.5039 2.33331 17.2692 2.56662 17.2692 2.91662V4.08332C17.2691 4.43325 17.5039 4.66663 17.856 4.66663Z" fill="#FF851B"/>
</svg>
