<svg width="15" height="15" viewBox="0 0 15 15" fill="none" xmlns="http://www.w3.org/2000/svg">
<path d="M11.0385 0H3.96145C1.74 0 0 1.74 0 3.96145V11.0385C0 13.26 1.74 15 3.96145 15H11.0385C13.26 15 15 13.26 15 11.0385V3.96145C15 1.74 13.2595 0 11.0385 0ZM14.0323 11.0385C14.0323 12.7176 12.7171 14.0323 11.0385 14.0323H3.96145C2.2829 14.0323 0.967742 12.7171 0.967742 11.0385V3.96145C0.967742 2.2829 2.2829 0.967742 3.96145 0.967742H11.0385C12.7176 0.967742 14.0323 2.2829 14.0323 3.96145V11.0385Z" fill="#FDFDFD"/>
<path d="M12.2172 3.8298C12.0619 3.71609 11.8538 3.70641 11.6879 3.80319C11.5224 3.90045 11.1556 3.94835 10.8614 3.98706C10.8005 3.99529 10.7405 4.00303 10.6824 4.01125C10.2706 3.66964 9.74465 3.47803 9.20223 3.47803C7.98046 3.47803 6.97788 4.42351 6.90675 5.61287C5.79869 5.42609 4.78401 4.84835 4.06498 3.98029C3.95804 3.85061 3.79207 3.78722 3.62465 3.809C3.4582 3.83222 3.31594 3.94012 3.24869 4.094C3.21772 4.16464 2.94772 4.829 2.94772 6.47222C2.94772 7.89529 4.07078 8.94093 4.84111 9.49109C4.31417 9.73061 3.70691 9.81867 3.13014 9.7548C2.90465 9.73061 2.69369 9.86319 2.61917 10.0756C2.54465 10.2885 2.62691 10.5246 2.81756 10.6451C3.72724 11.219 4.77869 11.5224 5.85869 11.5224C9.32707 11.5224 11.4261 8.7977 11.504 6.11125C11.6037 5.96658 11.7938 5.68496 12.1151 5.19093C12.2438 4.99206 12.3518 4.56335 12.4045 4.32577C12.4466 4.13803 12.3726 3.94303 12.2172 3.8298ZM10.6311 5.67141C10.5716 5.75367 10.5392 5.85335 10.5392 5.95496C10.5392 7.8648 9.08707 10.5546 5.85917 10.5546C5.5674 10.5546 5.27804 10.528 4.99449 10.4758C5.37288 10.3325 5.73046 10.1327 6.05901 9.87964C6.19062 9.77851 6.26078 9.61593 6.2453 9.45093C6.22982 9.28593 6.13062 9.1398 5.98207 9.0648C5.96127 9.05416 3.91594 7.97851 3.91594 6.4727C3.91594 5.96803 3.94304 5.57125 3.97885 5.26932C4.92869 6.08706 6.1374 6.57625 7.40949 6.63916C7.41917 6.63964 7.42933 6.64012 7.43853 6.63964C7.72014 6.63141 7.92723 6.4248 7.92723 6.15577C7.92723 6.08899 7.91369 6.02561 7.88901 5.96754C7.87691 5.89496 7.87062 5.8219 7.87062 5.74883C7.87062 5.03029 8.46772 4.44577 9.20223 4.44577C9.57094 4.44577 9.92562 4.59674 10.1758 4.85948C10.29 4.97851 10.4569 5.03222 10.618 5.00077C10.7279 4.97996 10.8547 4.96351 10.9877 4.94609C11.0351 4.9398 11.083 4.93351 11.1319 4.92674C10.7685 5.48029 10.6374 5.6627 10.6311 5.67141Z" fill="#FDFDFD"/>
</svg>
