<svg width="15" height="15" viewBox="0 0 15 15" fill="none" xmlns="http://www.w3.org/2000/svg">
<path d="M11.1914 14.4141H0.878906C0.717316 14.4141 0.585938 14.2827 0.585938 14.1211V0.878906C0.585938 0.717316 0.717316 0.585938 0.878906 0.585938H1.46484C1.62666 0.585938 1.75781 0.454788 1.75781 0.292969C1.75781 0.131149 1.62666 0 1.46484 0H0.878906C0.394249 0 0 0.394249 0 0.878906V14.1211C0 14.6058 0.394249 15 0.878906 15H11.1914C11.3531 15 11.4844 14.8689 11.4844 14.707C11.4844 14.5452 11.3532 14.4141 11.1914 14.4141Z" fill="#FDFDFD"/>
<path d="M14.1211 0H3.80859C3.64677 0 3.51562 0.131149 3.51562 0.292969C3.51562 0.454788 3.64677 0.585938 3.80859 0.585938H14.1211C14.2827 0.585938 14.4141 0.717316 14.4141 0.878906V14.1211C14.4141 14.2827 14.2827 14.4141 14.1211 14.4141H13.5352C13.3733 14.4141 13.2422 14.5452 13.2422 14.707C13.2422 14.8689 13.3733 15 13.5352 15H14.1211C14.6058 15 15 14.6056 15 14.1211V0.878906C15 0.394249 14.6058 0 14.1211 0Z" fill="#FDFDFD"/>
<path d="M3.61084 5.17822C4.46297 5.17822 5.15625 4.48494 5.15625 3.63281C5.15625 2.78057 4.46297 2.0874 3.61084 2.0874C2.7586 2.0874 2.06543 2.78069 2.06543 3.63281C2.06543 4.48494 2.7586 5.17822 3.61084 5.17822ZM3.61084 2.67334C4.1399 2.67334 4.57031 3.10375 4.57031 3.63281C4.57031 4.16187 4.1399 4.59229 3.61084 4.59229C3.08178 4.59229 2.65137 4.16187 2.65137 3.63281C2.65137 3.10375 3.08178 2.67334 3.61084 2.67334Z" fill="#FDFDFD"/>
<path d="M10.0854 5.32471C9.43794 5.32471 8.81298 5.54993 8.31299 5.94795V5.76416C8.31299 5.60234 8.18172 5.47119 8.02002 5.47119H5.97656C5.81474 5.47119 5.68359 5.60234 5.68359 5.76416V12.6196C5.68359 12.7814 5.81474 12.9126 5.97656 12.9126H8.12988C8.29159 12.9126 8.42285 12.7814 8.42285 12.6196V8.66272C8.42285 8.17406 8.82042 7.77649 9.30908 7.77649C9.79774 7.77649 10.1953 8.17406 10.1953 8.66272V12.6196C10.1953 12.7814 10.3265 12.9126 10.4883 12.9126H12.6416C12.8033 12.9126 12.9346 12.7814 12.9346 12.6196V8.17383C12.9346 6.60278 11.6564 5.32471 10.0854 5.32471ZM12.3486 12.3267H10.7812V8.66272C10.7812 7.85099 10.1208 7.19055 9.30908 7.19055C8.49724 7.19055 7.83691 7.85099 7.83691 8.66272V12.3267H6.26953V6.05713H7.72705V6.67271C7.72705 6.79951 7.80853 6.91189 7.92915 6.95126C8.04955 6.99051 8.18184 6.94782 8.25657 6.8454C8.68389 6.26015 9.36756 5.91064 10.0854 5.91064C11.3333 5.91064 12.3486 6.92585 12.3486 8.17383V12.3267Z" fill="#FDFDFD"/>
<path d="M2.53418 5.47119C2.37236 5.47119 2.24121 5.60234 2.24121 5.76416V12.6196C2.24121 12.7814 2.37236 12.9126 2.53418 12.9126H4.6875C4.84921 12.9126 4.98047 12.7814 4.98047 12.6196V5.76416C4.98047 5.60234 4.84921 5.47119 4.6875 5.47119H2.53418ZM4.39453 12.3267H2.82715V6.05713H4.39453V12.3267Z" fill="#FDFDFD"/>
<path d="M2.63683 0.585938C2.79854 0.585938 2.9298 0.454788 2.9298 0.292969C2.9298 0.131149 2.79854 0 2.63683 0H2.6366C2.47478 0 2.34375 0.131149 2.34375 0.292969C2.34375 0.454788 2.47501 0.585938 2.63683 0.585938Z" fill="#FDFDFD"/>
<path d="M12.3634 14.4141H12.3632C12.2013 14.4141 12.0703 14.5452 12.0703 14.707C12.0703 14.8689 12.2016 15 12.3634 15C12.5252 15 12.6564 14.8689 12.6564 14.707C12.6564 14.5452 12.5252 14.4141 12.3634 14.4141Z" fill="#FDFDFD"/>
</svg>
