<svg width="15" height="15" viewBox="0 0 15 15" fill="none" xmlns="http://www.w3.org/2000/svg">
<mask id="path-1-inside-1" fill="white">
<path d="M2.19727 15H7.08984V9.66797H5.33203V7.91016H7.08984V5.71289C7.08984 4.5013 8.07552 3.51562 9.28711 3.51562H11.4844V5.27344H9.72656C9.24191 5.27344 8.84766 5.66769 8.84766 6.15234V7.91016H11.4051L11.1121 9.66797H8.84766V15H12.8027C14.0143 15 15 14.0143 15 12.8027V2.19727C15 0.98568 14.0143 0 12.8027 0H2.19727C0.98568 0 0 0.98568 0 2.19727V12.8027C0 14.0143 0.98568 15 2.19727 15ZM0.878906 2.19727C0.878906 1.47034 1.47034 0.878906 2.19727 0.878906H12.8027C13.5297 0.878906 14.1211 1.47034 14.1211 2.19727V12.8027C14.1211 13.5297 13.5297 14.1211 12.8027 14.1211H9.72656V10.5469H11.8567L12.4426 7.03125H9.72656V6.15234H12.3633V2.63672H9.28711C7.59087 2.63672 6.21094 4.01665 6.21094 5.71289V7.03125H4.45312V10.5469H6.21094V14.1211H2.19727C1.47034 14.1211 0.878906 13.5297 0.878906 12.8027V2.19727Z"/>
</mask>
<path d="M7.08984 15V16H8.08984V15H7.08984ZM7.08984 9.66797H8.08984V8.66797H7.08984V9.66797ZM5.33203 9.66797H4.33203V10.668H5.33203V9.66797ZM5.33203 7.91016V6.91016H4.33203V7.91016H5.33203ZM7.08984 7.91016V8.91016H8.08984V7.91016H7.08984ZM11.4844 3.51562H12.4844V2.51562H11.4844V3.51562ZM11.4844 5.27344V6.27344H12.4844V5.27344H11.4844ZM8.84766 7.91016H7.84766V8.91016H8.84766V7.91016ZM11.4051 7.91016L12.3915 8.07456L12.5855 6.91016H11.4051V7.91016ZM11.1121 9.66797V10.668H11.9592L12.0985 9.83237L11.1121 9.66797ZM8.84766 9.66797V8.66797H7.84766V9.66797H8.84766ZM8.84766 15H7.84766V16H8.84766V15ZM9.72656 14.1211H8.72656V15.1211H9.72656V14.1211ZM9.72656 10.5469V9.54688H8.72656V10.5469H9.72656ZM11.8567 10.5469V11.5469H12.7038L12.843 10.7113L11.8567 10.5469ZM12.4426 7.03125L13.429 7.19565L13.623 6.03125H12.4426V7.03125ZM9.72656 7.03125H8.72656V8.03125H9.72656V7.03125ZM9.72656 6.15234V5.15234H8.72656V6.15234H9.72656ZM12.3633 6.15234V7.15234H13.3633V6.15234H12.3633ZM12.3633 2.63672H13.3633V1.63672H12.3633V2.63672ZM6.21094 7.03125V8.03125H7.21094V7.03125H6.21094ZM4.45312 7.03125V6.03125H3.45312V7.03125H4.45312ZM4.45312 10.5469H3.45312V11.5469H4.45312V10.5469ZM6.21094 10.5469H7.21094V9.54688H6.21094V10.5469ZM6.21094 14.1211V15.1211H7.21094V14.1211H6.21094ZM2.19727 16H7.08984V14H2.19727V16ZM8.08984 15V9.66797H6.08984V15H8.08984ZM7.08984 8.66797H5.33203V10.668H7.08984V8.66797ZM6.33203 9.66797V7.91016H4.33203V9.66797H6.33203ZM5.33203 8.91016H7.08984V6.91016H5.33203V8.91016ZM8.08984 7.91016V5.71289H6.08984V7.91016H8.08984ZM8.08984 5.71289C8.08984 5.05359 8.62781 4.51562 9.28711 4.51562V2.51562C7.52324 2.51562 6.08984 3.94902 6.08984 5.71289H8.08984ZM9.28711 4.51562H11.4844V2.51562H9.28711V4.51562ZM10.4844 3.51562V5.27344H12.4844V3.51562H10.4844ZM11.4844 4.27344H9.72656V6.27344H11.4844V4.27344ZM9.72656 4.27344C8.68962 4.27344 7.84766 5.1154 7.84766 6.15234H9.84766C9.84766 6.21997 9.79419 6.27344 9.72656 6.27344V4.27344ZM7.84766 6.15234V7.91016H9.84766V6.15234H7.84766ZM8.84766 8.91016H11.4051V6.91016H8.84766V8.91016ZM10.4187 7.74576L10.1257 9.50357L12.0985 9.83237L12.3915 8.07456L10.4187 7.74576ZM11.1121 8.66797H8.84766V10.668H11.1121V8.66797ZM7.84766 9.66797V15H9.84766V9.66797H7.84766ZM8.84766 16H12.8027V14H8.84766V16ZM12.8027 16C14.5666 16 16 14.5666 16 12.8027H14C14 13.462 13.462 14 12.8027 14V16ZM16 12.8027V2.19727H14V12.8027H16ZM16 2.19727C16 0.433395 14.5666 -1 12.8027 -1V1C13.462 1 14 1.53796 14 2.19727H16ZM12.8027 -1H2.19727V1H12.8027V-1ZM2.19727 -1C0.433395 -1 -1 0.433395 -1 2.19727H1C1 1.53796 1.53796 1 2.19727 1V-1ZM-1 2.19727V12.8027H1V2.19727H-1ZM-1 12.8027C-1 14.5666 0.433395 16 2.19727 16V14C1.53796 14 1 13.462 1 12.8027H-1ZM1.87891 2.19727C1.87891 2.02262 2.02262 1.87891 2.19727 1.87891V-0.121094C0.918052 -0.121094 -0.121094 0.918052 -0.121094 2.19727H1.87891ZM2.19727 1.87891H12.8027V-0.121094H2.19727V1.87891ZM12.8027 1.87891C12.9774 1.87891 13.1211 2.02262 13.1211 2.19727H15.1211C15.1211 0.918052 14.0819 -0.121094 12.8027 -0.121094V1.87891ZM13.1211 2.19727V12.8027H15.1211V2.19727H13.1211ZM13.1211 12.8027C13.1211 12.9774 12.9774 13.1211 12.8027 13.1211V15.1211C14.0819 15.1211 15.1211 14.0819 15.1211 12.8027H13.1211ZM12.8027 13.1211H9.72656V15.1211H12.8027V13.1211ZM10.7266 14.1211V10.5469H8.72656V14.1211H10.7266ZM9.72656 11.5469H11.8567V9.54688H9.72656V11.5469ZM12.843 10.7113L13.429 7.19565L11.4562 6.86685L10.8703 10.3825L12.843 10.7113ZM12.4426 6.03125H9.72656V8.03125H12.4426V6.03125ZM10.7266 7.03125V6.15234H8.72656V7.03125H10.7266ZM9.72656 7.15234H12.3633V5.15234H9.72656V7.15234ZM13.3633 6.15234V2.63672H11.3633V6.15234H13.3633ZM12.3633 1.63672H9.28711V3.63672H12.3633V1.63672ZM9.28711 1.63672C7.03858 1.63672 5.21094 3.46436 5.21094 5.71289H7.21094C7.21094 4.56893 8.14315 3.63672 9.28711 3.63672V1.63672ZM5.21094 5.71289V7.03125H7.21094V5.71289H5.21094ZM6.21094 6.03125H4.45312V8.03125H6.21094V6.03125ZM3.45312 7.03125V10.5469H5.45312V7.03125H3.45312ZM4.45312 11.5469H6.21094V9.54688H4.45312V11.5469ZM5.21094 10.5469V14.1211H7.21094V10.5469H5.21094ZM6.21094 13.1211H2.19727V15.1211H6.21094V13.1211ZM2.19727 13.1211C2.02262 13.1211 1.87891 12.9774 1.87891 12.8027H-0.121094C-0.121094 14.0819 0.918052 15.1211 2.19727 15.1211V13.1211ZM1.87891 12.8027V2.19727H-0.121094V12.8027H1.87891Z" fill="#FDFDFD" mask="url(#path-1-inside-1)"/>
</svg>
