<svg width="15" height="15" viewBox="0 0 15 15" fill="none" xmlns="http://www.w3.org/2000/svg">
<path d="M10.9396 0H4.06036C1.82144 0 0 1.82144 0 4.06036V10.9398C0 13.1786 1.82144 15 4.06036 15H10.9398C13.1786 15 15 13.1786 15 10.9398V4.06036C15 1.82144 13.1786 0 10.9396 0V0ZM14.1206 10.9398C14.1206 12.6937 12.6937 14.1206 10.9396 14.1206H4.06036C2.30633 14.1206 0.879364 12.6937 0.879364 10.9398V4.06036C0.879364 2.30633 2.30633 0.879364 4.06036 0.879364H10.9398C12.6937 0.879364 14.1206 2.30633 14.1206 4.06036V10.9398Z" fill="#FDFDFD"/>
<path d="M7.50001 3.39856C5.23843 3.39856 3.39856 5.23843 3.39856 7.50001C3.39856 9.76159 5.23843 11.6015 7.50001 11.6015C9.76159 11.6015 11.6015 9.76159 11.6015 7.50001C11.6015 5.23843 9.76159 3.39856 7.50001 3.39856ZM7.50001 10.7221C5.72343 10.7221 4.27792 9.2767 4.27792 7.50001C4.27792 5.72343 5.72343 4.27792 7.50001 4.27792C9.2767 4.27792 10.7221 5.72343 10.7221 7.50001C10.7221 9.2767 9.2767 10.7221 7.50001 10.7221Z" fill="#FDFDFD"/>
<path d="M11.6995 1.94189C11.0311 1.94189 10.4875 2.4856 10.4875 3.15382C10.4875 3.82216 11.0311 4.36587 11.6995 4.36587C12.3678 4.36587 12.9115 3.82216 12.9115 3.15382C12.9115 2.48549 12.3678 1.94189 11.6995 1.94189ZM11.6995 3.48639C11.5161 3.48639 11.3669 3.33716 11.3669 3.15382C11.3669 2.97038 11.5161 2.82126 11.6995 2.82126C11.8829 2.82126 12.0322 2.97038 12.0322 3.15382C12.0322 3.33716 11.8829 3.48639 11.6995 3.48639Z" fill="#FDFDFD"/>
</svg>
