<svg width="36" height="35" viewBox="0 0 36 35" fill="none" xmlns="http://www.w3.org/2000/svg">
<path d="M10.2098 1.77216C9.59939 1.77302 9.01422 2.01448 8.58264 2.44358C8.15106 2.87269 7.9083 3.45441 7.90759 4.06119C7.90759 4.19827 7.96238 4.32974 8.05989 4.42667C8.15741 4.52361 8.28967 4.57806 8.42758 4.57806C8.56549 4.57806 8.69776 4.52361 8.79527 4.42667C8.89279 4.32974 8.94758 4.19827 8.94758 4.06119C8.94789 3.72836 9.08104 3.40926 9.3178 3.17392C9.55456 2.93858 9.87558 2.80622 10.2104 2.80591H13.5945C13.7324 2.80591 13.8647 2.75145 13.9622 2.65452C14.0597 2.55759 14.1145 2.42612 14.1145 2.28903C14.1145 2.15195 14.0597 2.02048 13.9622 1.92355C13.8647 1.82661 13.7324 1.77216 13.5945 1.77216H10.2098Z" fill="#FF851B"/>
<path d="M16.7097 1.77216H15.7885C15.6506 1.77216 15.5184 1.82661 15.4209 1.92355C15.3233 2.02048 15.2686 2.15195 15.2686 2.28903C15.2686 2.42612 15.3233 2.55759 15.4209 2.65452C15.5184 2.75145 15.6506 2.80591 15.7885 2.80591H16.7097C16.8476 2.80591 16.9798 2.75145 17.0774 2.65452C17.1749 2.55759 17.2297 2.42612 17.2297 2.28903C17.2297 2.15195 17.1749 2.02048 17.0774 1.92355C16.9798 1.82661 16.8476 1.77216 16.7097 1.77216Z" fill="#FF851B"/>
<path d="M13.8546 1.03376H16.7098C16.8477 1.03376 16.98 0.979299 17.0775 0.882365C17.175 0.785432 17.2298 0.653962 17.2298 0.516878C17.2298 0.379793 17.175 0.248323 17.0775 0.15139C16.98 0.0544566 16.8477 0 16.7098 0H13.8546C13.7167 0 13.5844 0.0544566 13.4869 0.15139C13.3894 0.248323 13.3346 0.379793 13.3346 0.516878C13.3346 0.653962 13.3894 0.785432 13.4869 0.882365C13.5844 0.979299 13.7167 1.03376 13.8546 1.03376Z" fill="#FF851B"/>
<path d="M6.64415 4.57806C6.7125 4.57818 6.7802 4.56489 6.84337 4.53896C6.90655 4.51304 6.96396 4.47498 7.01231 4.42696C7.06067 4.37895 7.09902 4.32193 7.12518 4.25916C7.15133 4.1964 7.16478 4.12912 7.16474 4.06118C7.1656 3.25862 7.48668 2.48918 8.05754 1.92163C8.62839 1.35408 9.40242 1.03477 10.2098 1.03376H11.5826C11.7205 1.03376 11.8528 0.979299 11.9503 0.882365C12.0478 0.785432 12.1026 0.653962 12.1026 0.516878C12.1026 0.379793 12.0478 0.248323 11.9503 0.15139C11.8528 0.0544566 11.7205 0 11.5826 0H10.2098C9.12669 0.00132902 8.08833 0.429648 7.32251 1.191C6.55668 1.95234 6.12594 2.98455 6.12476 4.06118C6.12472 4.12902 6.13812 4.1962 6.1642 4.25889C6.19028 4.32158 6.22853 4.37855 6.27676 4.42655C6.32499 4.47454 6.38226 4.51263 6.4453 4.53862C6.50833 4.56462 6.57591 4.57802 6.64415 4.57806Z" fill="#FF851B"/>
<path d="M23.737 1.77216C23.1265 1.77286 22.5412 2.01425 22.1095 2.44337C21.6778 2.8725 21.4349 3.45431 21.4342 4.06119C21.4342 4.19827 21.489 4.32974 21.5865 4.42667C21.684 4.52361 21.8163 4.57806 21.9542 4.57806C22.0921 4.57806 22.2244 4.52361 22.3219 4.42667C22.4194 4.32974 22.4742 4.19827 22.4742 4.06119C22.4745 3.72836 22.6077 3.40926 22.8444 3.17392C23.0812 2.93858 23.4022 2.80622 23.737 2.80591H25.305C25.4429 2.80591 25.5752 2.75145 25.6727 2.65452C25.7702 2.55759 25.825 2.42612 25.825 2.28903C25.825 2.15195 25.7702 2.02048 25.6727 1.92355C25.5752 1.82661 25.4429 1.77216 25.305 1.77216H23.737Z" fill="#FF851B"/>
<path d="M26.9764 2.28903C26.9764 2.35692 26.9898 2.42415 27.0159 2.48688C27.0421 2.54961 27.0804 2.6066 27.1287 2.65461C27.1769 2.70261 27.2343 2.74068 27.2974 2.76665C27.3605 2.79261 27.4281 2.80595 27.4964 2.80591H30.2369C30.3748 2.80591 30.5071 2.75145 30.6046 2.65452C30.7021 2.55759 30.7569 2.42612 30.7569 2.28903C30.7569 2.15195 30.7021 2.02048 30.6046 1.92355C30.5071 1.82661 30.3748 1.77216 30.2369 1.77216H27.4964C27.4281 1.77212 27.3605 1.78546 27.2974 1.81142C27.2343 1.83738 27.1769 1.87545 27.1287 1.92346C27.0804 1.97146 27.0421 2.02846 27.0159 2.09119C26.9898 2.15392 26.9764 2.22115 26.9764 2.28903Z" fill="#FF851B"/>
<path d="M29.5205 1.03376H30.2369C30.3748 1.03376 30.5071 0.979299 30.6046 0.882365C30.7021 0.785432 30.7569 0.653962 30.7569 0.516878C30.7569 0.379793 30.7021 0.248323 30.6046 0.15139C30.5071 0.0544566 30.3748 0 30.2369 0H29.5205C29.3826 0 29.2503 0.0544566 29.1528 0.15139C29.0553 0.248323 29.0005 0.379793 29.0005 0.516878C29.0005 0.653962 29.0553 0.785432 29.1528 0.882365C29.2503 0.979299 29.3826 1.03376 29.5205 1.03376Z" fill="#FF851B"/>
<path d="M20.1714 4.57806C20.3093 4.57806 20.4415 4.5236 20.539 4.42667C20.6366 4.32974 20.6913 4.19827 20.6913 4.06118C20.6922 3.25852 21.0134 2.48898 21.5844 1.92142C22.1553 1.35385 22.9295 1.03462 23.737 1.03376H26.6606C26.7985 1.03376 26.9307 0.979299 27.0282 0.882365C27.1258 0.785432 27.1805 0.653962 27.1805 0.516878C27.1805 0.379793 27.1258 0.248323 27.0282 0.15139C26.9307 0.0544566 26.7985 0 26.6606 0H23.737C22.6538 0.0011727 21.6153 0.429422 20.8493 1.19079C20.0834 1.95215 19.6525 2.98445 19.6514 4.06118C19.6513 4.12907 19.6648 4.1963 19.6909 4.25903C19.717 4.32176 19.7553 4.37875 19.8036 4.42676C19.8519 4.47476 19.9092 4.51283 19.9723 4.53879C20.0354 4.56476 20.1031 4.5781 20.1714 4.57806Z" fill="#FF851B"/>
<path d="M31.6192 17.1264C31.4813 17.1264 31.3491 17.1808 31.2515 17.2778C31.154 17.3747 31.0992 17.5062 31.0992 17.6433V19.4154C31.0992 19.5525 31.154 19.684 31.2515 19.7809C31.3491 19.8778 31.4813 19.9323 31.6192 19.9323C31.7571 19.9323 31.8894 19.8778 31.9869 19.7809C32.0844 19.684 32.1392 19.5525 32.1392 19.4154V17.6433C32.1392 17.5062 32.0844 17.3747 31.9869 17.2778C31.8894 17.1808 31.7571 17.1264 31.6192 17.1264Z" fill="#FF851B"/>
<path d="M35.1849 32.1941H33.922V13.8523L35.247 13.694C35.3814 13.6748 35.5029 13.604 35.5856 13.4969C35.6682 13.3897 35.7054 13.2547 35.6892 13.1207C35.6729 12.9866 35.6046 12.8642 35.4987 12.7796C35.3929 12.695 35.258 12.6549 35.1228 12.6679L24.5319 13.9327L24.2466 7.98533C24.3381 7.94473 24.4159 7.87867 24.4704 7.79513C24.525 7.71159 24.5541 7.61413 24.5542 7.51452V5.74237C24.5541 5.60531 24.4993 5.47389 24.4018 5.37697C24.3043 5.28005 24.1721 5.22557 24.0342 5.22549H18.0914C17.9535 5.22549 17.8212 5.27995 17.7237 5.37688C17.6262 5.47382 17.5714 5.60529 17.5714 5.74237V7.51452C17.5713 7.61456 17.6004 7.7125 17.6552 7.7964C17.71 7.8803 17.7881 7.94655 17.8802 7.9871L17.5563 14.7674L11.0807 15.54L10.7206 7.98474C10.8119 7.94412 10.8895 7.87813 10.944 7.7947C10.9984 7.71127 11.0275 7.61397 11.0276 7.51452V5.74237C11.0276 5.60529 10.9728 5.47382 10.8753 5.37688C10.7777 5.27995 10.6455 5.22549 10.5076 5.22549H4.56481C4.4269 5.22549 4.29464 5.27995 4.19712 5.37688C4.0996 5.47382 4.04482 5.60529 4.04482 5.74237V7.51452C4.04482 7.61472 4.07414 7.71275 4.12923 7.79666C4.18431 7.88058 4.26277 7.94674 4.35503 7.9871L3.40627 27.7637H3.01078C2.87719 27.7637 2.74872 27.8148 2.65202 27.9064C2.55531 27.9981 2.49779 28.1231 2.49138 28.2558L2.30121 32.1941H1.01401C0.945713 32.1941 0.878078 32.2074 0.814972 32.2334C0.751866 32.2593 0.694527 32.2974 0.646233 32.3454C0.59794 32.3934 0.559639 32.4504 0.533521 32.5131C0.507403 32.5759 0.49398 32.6431 0.494019 32.711V34.4831C0.49398 34.551 0.507403 34.6182 0.533521 34.681C0.559639 34.7437 0.59794 34.8007 0.646233 34.8487C0.694527 34.8967 0.751866 34.9348 0.814972 34.9607C0.878078 34.9867 0.945713 35 1.01401 35H35.1849C35.2532 35 35.3208 34.9867 35.3839 34.9607C35.447 34.9348 35.5044 34.8967 35.5527 34.8487C35.6009 34.8007 35.6392 34.7437 35.6654 34.681C35.6915 34.6182 35.7049 34.551 35.7049 34.4831V32.711C35.7049 32.6431 35.6915 32.5759 35.6654 32.5131C35.6392 32.4504 35.6009 32.3934 35.5527 32.3454C35.5044 32.2974 35.447 32.2593 35.3839 32.2334C35.3208 32.2074 35.2532 32.1941 35.1849 32.1941ZM29.9645 32.1941V26.8038C29.9645 26.6667 29.9097 26.5353 29.8122 26.4383C29.7146 26.3414 29.5824 26.2869 29.4445 26.2869H25.8788C25.8105 26.2869 25.7429 26.3002 25.6798 26.3262C25.6167 26.3522 25.5593 26.3902 25.511 26.4382C25.4627 26.4862 25.4244 26.5432 25.3983 26.606C25.3722 26.6687 25.3588 26.7359 25.3588 26.8038V32.1941H24.5565V26.8038C24.5565 26.6667 24.5018 26.5353 24.4042 26.4383C24.3067 26.3414 24.1745 26.2869 24.0366 26.2869H20.4709C20.4026 26.2869 20.335 26.3002 20.2719 26.3262C20.2088 26.3522 20.1514 26.3902 20.1031 26.4382C20.0548 26.4862 20.0165 26.5432 19.9904 26.606C19.9643 26.6687 19.9509 26.7359 19.9509 26.8038V32.1941H8.05618V16.9427L32.8821 13.977V32.1941H29.9645ZM28.9245 32.1941H26.3988V27.3207H28.9245V32.1941ZM23.5166 32.1941H20.9909V27.3207H23.5166V32.1941ZM18.6138 6.25925H23.5166V6.99765H18.6138V6.25925ZM18.9216 8.0314H23.2078L23.4967 14.0567L18.6046 14.6412L18.9216 8.0314ZM5.08658 6.25925H9.98758V6.99765H5.0848L5.08658 6.25925ZM5.3959 8.0314H9.68182L10.0452 15.6635L5.69066 16.1842C5.55937 16.2002 5.43914 16.2653 5.35445 16.3663C5.26977 16.4673 5.22699 16.5966 5.23483 16.7279C5.24267 16.8591 5.30053 16.9825 5.39665 17.0728C5.49276 17.1631 5.6199 17.2137 5.75217 17.2141C5.77312 17.2141 5.79405 17.2129 5.81487 17.2106L7.0162 17.0667V27.7637H4.44744L5.3959 8.0314ZM3.5064 28.7975H7.0162V32.1941H3.34238L3.5064 28.7975ZM34.6649 33.9663H1.534V33.2279H34.6649V33.9663Z" fill="#FF851B"/>
<path d="M17.044 24.5641H11.1013C10.9634 24.5641 10.8311 24.6185 10.7336 24.7155C10.6361 24.8124 10.5813 24.9439 10.5813 25.081C10.5813 25.218 10.6361 25.3495 10.7336 25.4465C10.8311 25.5434 10.9634 25.5978 11.1013 25.5978H17.044C17.182 25.5978 17.3142 25.5434 17.4117 25.4465C17.5093 25.3495 17.564 25.218 17.564 25.081C17.564 24.9439 17.5093 24.8124 17.4117 24.7155C17.3142 24.6185 17.182 24.5641 17.044 24.5641Z" fill="#FF851B"/>
<path d="M17.044 21.0198H11.1013C10.9634 21.0198 10.8311 21.0742 10.7336 21.1712C10.6361 21.2681 10.5813 21.3996 10.5813 21.5367C10.5813 21.6737 10.6361 21.8052 10.7336 21.9021C10.8311 21.9991 10.9634 22.0535 11.1013 22.0535H17.044C17.182 22.0535 17.3142 21.9991 17.4117 21.9021C17.5093 21.8052 17.564 21.6737 17.564 21.5367C17.564 21.3996 17.5093 21.2681 17.4117 21.1712C17.3142 21.0742 17.182 21.0198 17.044 21.0198Z" fill="#FF851B"/>
<path d="M17.044 22.7919H11.1013C10.9634 22.7919 10.8311 22.8464 10.7336 22.9433C10.6361 23.0403 10.5813 23.1717 10.5813 23.3088C10.5813 23.4459 10.6361 23.5774 10.7336 23.6743C10.8311 23.7712 10.9634 23.8257 11.1013 23.8257H17.044C17.182 23.8257 17.3142 23.7712 17.4117 23.6743C17.5093 23.5774 17.564 23.4459 17.564 23.3088C17.564 23.1717 17.5093 23.0403 17.4117 22.9433C17.3142 22.8464 17.182 22.7919 17.044 22.7919Z" fill="#FF851B"/>
<path d="M23.1442 21.9059H21.3614C21.2931 21.9058 21.2255 21.9192 21.1624 21.9451C21.0993 21.9711 21.0419 22.0092 20.9936 22.0572C20.9454 22.1052 20.9071 22.1622 20.8809 22.2249C20.8548 22.2876 20.8414 22.3549 20.8414 22.4228V24.1949C20.8414 24.2628 20.8548 24.33 20.8809 24.3928C20.9071 24.4555 20.9454 24.5125 20.9936 24.5605C21.0419 24.6085 21.0993 24.6466 21.1624 24.6725C21.2255 24.6985 21.2931 24.7118 21.3614 24.7118H23.1442C23.2822 24.7118 23.4144 24.6573 23.5119 24.5604C23.6095 24.4635 23.6642 24.332 23.6642 24.1949V22.4228C23.6642 22.2857 23.6095 22.1542 23.5119 22.0573C23.4144 21.9603 23.2822 21.9059 23.1442 21.9059ZM22.6243 23.678H21.8814V22.9396H22.6243V23.678Z" fill="#FF851B"/>
<path d="M28.5531 21.9059H26.7702C26.7019 21.9058 26.6343 21.9192 26.5712 21.9451C26.5081 21.9711 26.4508 22.0092 26.4025 22.0572C26.3542 22.1052 26.3159 22.1622 26.2897 22.2249C26.2636 22.2876 26.2502 22.3549 26.2502 22.4228V24.1949C26.2502 24.2628 26.2636 24.33 26.2897 24.3928C26.3159 24.4555 26.3542 24.5125 26.4025 24.5605C26.4508 24.6085 26.5081 24.6466 26.5712 24.6725C26.6343 24.6985 26.7019 24.7118 26.7702 24.7118H28.5531C28.691 24.7118 28.8232 24.6573 28.9208 24.5604C29.0183 24.4635 29.0731 24.332 29.0731 24.1949V22.4228C29.0731 22.2857 29.0183 22.1542 28.9208 22.0573C28.8232 21.9603 28.691 21.9059 28.5531 21.9059ZM28.0331 23.678H27.2902V22.9396H28.0331V23.678Z" fill="#FF851B"/>
</svg>
