<svg width="36" height="35" viewBox="0 0 36 35" fill="none" xmlns="http://www.w3.org/2000/svg">
<path d="M17.1752 23.3333H16.0015V24.5H17.1752V23.3333Z" fill="#FF851B"/>
<path d="M35.0775 9.99717L30.6726 7.4305V3.5H31.2595C31.4151 3.5 31.5644 3.43854 31.6745 3.32914C31.7845 3.21975 31.8463 3.07138 31.8463 2.91667V0.583333C31.8463 0.428624 31.7845 0.280251 31.6745 0.170854C31.5644 0.0614581 31.4151 0 31.2595 0H25.391C25.2354 0 25.0861 0.0614581 24.9761 0.170854C24.866 0.280251 24.8042 0.428624 24.8042 0.583333V2.91667C24.8042 3.07138 24.866 3.21975 24.9761 3.32914C25.0861 3.43854 25.2354 3.5 25.391 3.5H25.9779V4.69467L18.059 0.0805C17.9689 0.0279924 17.8664 0.000311255 17.762 0.000311255C17.6576 0.000311255 17.5551 0.0279924 17.4651 0.0805L0.446568 9.99717C0.358358 10.0486 0.285202 10.1221 0.234351 10.2103C0.183501 10.2985 0.156721 10.3983 0.156667 10.5V13.4167C0.156722 13.5194 0.18406 13.6203 0.235917 13.7091C0.287774 13.7979 0.362311 13.8716 0.451991 13.9226C0.541671 13.9736 0.643316 14.0002 0.746646 13.9997C0.849976 13.9991 0.951329 13.9715 1.04046 13.9195L2.50405 13.0667V28.3243C2.14841 28.5275 1.85277 28.8201 1.64677 29.1727C1.44077 29.5253 1.33165 29.9256 1.33036 30.3333C1.33032 30.4364 1.33738 30.5393 1.35148 30.6413C0.899545 30.8938 0.544629 31.2882 0.342332 31.7627C0.140035 32.2371 0.101787 32.7649 0.233579 33.2633C0.36537 33.7617 0.659756 34.2026 1.07062 34.5168C1.48149 34.8311 1.98562 35.001 2.50405 35H33.02C33.5385 35.001 34.0426 34.8311 34.4535 34.5168C34.8643 34.2026 35.1587 33.7617 35.2905 33.2633C35.4223 32.7649 35.384 32.2371 35.1817 31.7627C34.9794 31.2882 34.6245 30.8938 34.1726 30.6413C34.1867 30.5393 34.1938 30.4364 34.1937 30.3333C34.1924 29.9256 34.0833 29.5253 33.8773 29.1727C33.6713 28.8201 33.3757 28.5275 33.02 28.3243V13.0667L34.4836 13.9195C34.5727 13.9715 34.6741 13.9991 34.7774 13.9997C34.8808 14.0002 34.9824 13.9736 35.0721 13.9226C35.1618 13.8716 35.2363 13.7979 35.2882 13.7091C35.34 13.6203 35.3674 13.5194 35.3674 13.4167V10.5C35.3674 10.3983 35.3406 10.2985 35.2897 10.2103C35.2389 10.1221 35.1657 10.0486 35.0775 9.99717ZM25.9779 1.16667H30.6726V2.33333H25.9779V1.16667ZM27.1516 3.5H29.499V6.74625L27.1516 5.37833V3.5ZM2.50405 33.8333C2.22003 33.8337 1.94556 33.7314 1.73183 33.5455C1.5181 33.3596 1.37969 33.1027 1.34241 32.8228C1.30513 32.543 1.37153 32.2592 1.52922 32.0243C1.68692 31.7895 1.92514 31.6198 2.19948 31.5467C2.27944 31.5251 2.3539 31.4869 2.41797 31.4347C2.48203 31.3825 2.53424 31.3174 2.57116 31.2436C2.60808 31.1699 2.62888 31.0892 2.63218 31.0069C2.63548 30.9246 2.62121 30.8426 2.59032 30.7662C2.53026 30.619 2.50118 30.4612 2.50487 30.3024C2.50855 30.1436 2.54492 29.9873 2.61174 29.843C2.67856 29.6987 2.7744 29.5696 2.89336 29.4636C3.01232 29.3576 3.15187 29.2769 3.3034 29.2266C3.45494 29.1762 3.61524 29.1573 3.77442 29.1709C3.93361 29.1845 4.0883 29.2304 4.22895 29.3057C4.3696 29.3811 4.49324 29.4843 4.59222 29.6089C4.69121 29.7336 4.76345 29.8771 4.80448 30.0306C4.82618 30.1101 4.86457 30.1841 4.91711 30.2478C4.96966 30.3114 5.03517 30.3633 5.10935 30.4C5.18352 30.4367 5.26468 30.4574 5.34747 30.4607C5.43025 30.464 5.51281 30.4498 5.58968 30.4191C5.74315 30.36 5.90735 30.3335 6.07174 30.3413C6.23613 30.349 6.39706 30.3909 6.54419 30.4642C6.69132 30.5375 6.8214 30.6406 6.92605 30.7668C7.03071 30.8931 7.10763 31.0397 7.15187 31.1972C7.17357 31.2767 7.21195 31.3507 7.2645 31.4144C7.31704 31.4781 7.38256 31.53 7.45673 31.5667C7.53091 31.6034 7.61206 31.6241 7.69485 31.6274C7.77764 31.6306 7.86019 31.6165 7.93707 31.5857C8.09778 31.5209 8.27097 31.4922 8.44416 31.5018C8.61736 31.5114 8.78625 31.5591 8.93869 31.6414C9.09114 31.7236 9.22334 31.8385 9.32579 31.9776C9.42824 32.1168 9.49839 32.2767 9.5312 32.4461C9.564 32.6154 9.55864 32.7898 9.5155 32.9568C9.47236 33.1238 9.39252 33.2793 9.28171 33.4119C9.17091 33.5446 9.0319 33.6512 8.87469 33.724C8.71747 33.7969 8.54597 33.8342 8.37251 33.8333H2.50405ZM10.7199 32.6667H24.8042C24.8066 33.0775 24.9193 33.4802 25.1305 33.8333H10.3936C10.6048 33.4802 10.7175 33.0775 10.7199 32.6667ZM20.6963 29.1667H14.8278V18.6667H20.6963V29.1667ZM21.87 30.3333V31.5H13.6541V30.3333H21.87ZM33.3246 31.5467C33.5989 31.6198 33.8372 31.7895 33.9949 32.0243C34.1525 32.2592 34.2189 32.543 34.1817 32.8228C34.1444 33.1027 34.006 33.3596 33.7922 33.5455C33.5785 33.7314 33.304 33.8337 33.02 33.8333H27.1516C26.9781 33.8342 26.8066 33.7969 26.6494 33.724C26.4922 33.6512 26.3532 33.5446 26.2424 33.4119C26.1316 33.2793 26.0517 33.1238 26.0086 32.9568C25.9654 32.7898 25.9601 32.6154 25.9929 32.4461C26.0257 32.2767 26.0958 32.1168 26.1983 31.9776C26.3007 31.8385 26.4329 31.7236 26.5854 31.6414C26.7378 31.5591 26.9067 31.5114 27.0799 31.5018C27.2531 31.4922 27.4263 31.5209 27.587 31.5857C27.6639 31.6165 27.7464 31.6306 27.8292 31.6274C27.912 31.6241 27.9932 31.6034 28.0673 31.5667C28.1415 31.53 28.207 31.4781 28.2596 31.4144C28.3121 31.3507 28.3505 31.2767 28.3722 31.1972C28.4164 31.0396 28.4932 30.893 28.5979 30.7667C28.7025 30.6404 28.8326 30.5372 28.9798 30.4639C29.1269 30.3906 29.2879 30.3488 29.4523 30.341C29.6167 30.3333 29.7809 30.3599 29.9344 30.4191C30.0113 30.4498 30.0938 30.464 30.1766 30.4607C30.2594 30.4574 30.3406 30.4367 30.4147 30.4C30.4889 30.3633 30.5544 30.3114 30.607 30.2478C30.6595 30.1841 30.6979 30.1101 30.7196 30.0306C30.7606 29.8771 30.8329 29.7336 30.9319 29.6089C31.0308 29.4843 31.1545 29.3811 31.2951 29.3057C31.4358 29.2304 31.5905 29.1845 31.7497 29.1709C31.9088 29.1573 32.0691 29.1762 32.2207 29.2266C32.3722 29.2769 32.5118 29.3576 32.6307 29.4636C32.7497 29.5696 32.8455 29.6987 32.9123 29.843C32.9792 29.9873 33.0155 30.1436 33.0192 30.3024C33.0229 30.4612 32.9938 30.619 32.9338 30.7662C32.9029 30.8426 32.8886 30.9246 32.8919 31.0069C32.8952 31.0892 32.916 31.1699 32.9529 31.2436C32.9898 31.3174 33.042 31.3825 33.1061 31.4347C33.1702 31.4869 33.2446 31.5251 33.3246 31.5467ZM31.8463 28C31.4314 28.0013 31.0243 28.1119 30.6663 28.3205C30.3084 28.5292 30.0125 28.8284 29.8088 29.1877C29.3452 29.1286 28.8744 29.208 28.4564 29.4157C28.0384 29.6235 27.692 29.9502 27.4614 30.3543C27.3587 30.3403 27.2552 30.3333 27.1516 30.3333C26.7414 30.3346 26.3387 30.4431 25.984 30.6478C25.6292 30.8526 25.3349 31.1465 25.1305 31.5H23.0436V29.75C23.0436 29.5953 22.9818 29.4469 22.8718 29.3375C22.7617 29.2281 22.6124 29.1667 22.4568 29.1667H21.87V18.0833C21.87 17.9286 21.8081 17.7802 21.6981 17.6709C21.588 17.5615 21.4388 17.5 21.2831 17.5H14.241C14.0853 17.5 13.9361 17.5615 13.826 17.6709C13.7159 17.7802 13.6541 17.9286 13.6541 18.0833V29.1667H13.0673C12.9116 29.1667 12.7624 29.2281 12.6523 29.3375C12.5423 29.4469 12.4804 29.5953 12.4804 29.75V31.5H10.3936C10.1892 31.1465 9.89483 30.8526 9.5401 30.6478C9.18537 30.4431 8.78271 30.3346 8.37251 30.3333C8.26886 30.3333 8.16533 30.3403 8.06265 30.3543C7.83183 29.9504 7.48542 29.6239 7.06745 29.4162C6.64948 29.2084 6.17882 29.1289 5.71527 29.1877C5.51155 28.8284 5.21565 28.5292 4.85773 28.3205C4.49981 28.1119 4.09266 28.0013 3.67774 28V12.383L17.762 4.17608L31.8463 12.383V28ZM32.9373 11.6667L18.059 2.99717C17.9689 2.94466 17.8664 2.91698 17.762 2.91698C17.6576 2.91698 17.5551 2.94466 17.4651 2.99717L2.58679 11.6667L2.50405 11.7145L1.33036 12.3987V10.8342L17.762 1.25942L34.1937 10.8342V12.3987L33.02 11.7145L32.9373 11.6667Z" fill="#FF851B"/>
<path d="M12.1139 0.380737L3.89966 5.17059L4.49324 6.17639L12.7075 1.38653L12.1139 0.380737Z" fill="#FF851B"/>
<path d="M2.62158 5.91312L1.62036 6.49695L2.21394 7.50274L3.21516 6.91892L2.62158 5.91312Z" fill="#FF851B"/>
<path d="M14.241 11.6667V14.5833C14.241 14.738 14.3028 14.8864 14.4128 14.9958C14.5229 15.1052 14.6722 15.1667 14.8278 15.1667H20.6963C20.8519 15.1667 21.0012 15.1052 21.1112 14.9958C21.2213 14.8864 21.2831 14.738 21.2831 14.5833V11.6667C21.2831 10.7384 20.9121 9.84816 20.2518 9.19178C19.5915 8.5354 18.6959 8.16666 17.762 8.16666C16.8282 8.16666 15.9326 8.5354 15.2723 9.19178C14.6119 9.84816 14.241 10.7384 14.241 11.6667ZM17.1752 9.41616V11.0833H15.498C15.6029 10.6822 15.8137 10.3162 16.1086 10.0231C16.4034 9.73 16.7716 9.52048 17.1752 9.41616ZM15.4147 12.25H17.1752V14H15.4147V12.25ZM18.3489 14V12.25H20.1094V14H18.3489ZM20.0261 11.0833H18.3489V9.41616C18.7524 9.52048 19.1207 9.73 19.4155 10.0231C19.7104 10.3162 19.9211 10.6822 20.0261 11.0833Z" fill="#FF851B"/>
<path d="M24.2173 24.5H30.0858C30.2414 24.5 30.3907 24.4385 30.5008 24.3291C30.6108 24.2197 30.6726 24.0714 30.6726 23.9167V18.0833C30.6726 17.9286 30.6108 17.7803 30.5008 17.6709C30.3907 17.5615 30.2414 17.5 30.0858 17.5H24.2173C24.0617 17.5 23.9124 17.5615 23.8024 17.6709C23.6923 17.7803 23.6305 17.9286 23.6305 18.0833V23.9167C23.6305 24.0714 23.6923 24.2197 23.8024 24.3291C23.9124 24.4385 24.0617 24.5 24.2173 24.5ZM24.8042 23.3333V22.1667H29.499V23.3333H24.8042ZM29.499 18.6667V21H24.8042V18.6667H29.499Z" fill="#FF851B"/>
<path d="M11.3067 17.5H5.43829C5.28264 17.5 5.13338 17.5615 5.02332 17.6709C4.91327 17.7803 4.85144 17.9286 4.85144 18.0833V23.9167C4.85144 24.0714 4.91327 24.2197 5.02332 24.3291C5.13338 24.4385 5.28264 24.5 5.43829 24.5H11.3067C11.4624 24.5 11.6117 24.4385 11.7217 24.3291C11.8318 24.2197 11.8936 24.0714 11.8936 23.9167V18.0833C11.8936 17.9286 11.8318 17.7803 11.7217 17.6709C11.6117 17.5615 11.4624 17.5 11.3067 17.5ZM10.7199 18.6667V21H6.02513V18.6667H10.7199ZM6.02513 23.3333V22.1667H10.7199V23.3333H6.02513Z" fill="#FF851B"/>
<path d="M35.3674 17.5H34.1937V25.6667H35.3674V17.5Z" fill="#FF851B"/>
</svg>
